<!DOCTYPE svg PUBLIC "-//W3C//DTD SVG 1.1//EN" "http://www.w3.org/Graphics/SVG/1.1/DTD/svg11.dtd">

<!-- Uploaded to: SVG Repo, www.svgrepo.com, Transformed by: SVG Repo Mixer Tools -->
<svg fill="#45f3ff" height="800px" width="800px" version="1.1" id="Layer_1" xmlns="http://www.w3.org/2000/svg" xmlns:xlink="http://www.w3.org/1999/xlink" viewBox="0 0 502 502" xml:space="preserve" stroke="#45f3ff">

<g id="SVGRepo_bgCarrier" stroke-width="0"/>

<g id="SVGRepo_tracerCarrier" stroke-linecap="round" stroke-linejoin="round"/>

<g id="SVGRepo_iconCarrier"> <g> <g> <g> <path d="M428.483,73.517C381.076,26.108,318.045,0,251,0S120.924,26.108,73.517,73.517C26.108,120.924,0,183.955,0,251 s26.108,130.076,73.517,177.483C120.924,475.892,183.955,502,251,502s130.076-26.108,177.483-73.517 C475.892,381.076,502,318.045,502,251S475.892,120.924,428.483,73.517z M251,482C123.626,482,20,378.374,20,251 S123.626,20,251,20s231,103.626,231,231S378.374,482,251,482z"/> <path d="M251,134c-64.514,0-117,52.486-117,117s52.486,117,117,117s117-52.486,117-117S315.514,134,251,134z M251,348 c-53.486,0-97-43.514-97-97c0-53.486,43.514-97,97-97c53.486,0,97,43.514,97,97C348,304.486,304.486,348,251,348z"/> <path d="M276.844,226.81c3.446-5.029,5.169-10.751,5.168-17.16c0-8.614-3.034-15.936-9.097-21.968 c-6.065-6.028-13.372-9.044-21.916-9.044c-8.616,0-15.938,3.016-21.968,9.044c-6.03,6.032-9.044,13.353-9.044,21.968 c0,6.409,1.688,12.131,5.065,17.16c-3.721,2.207-7.236,4.962-10.544,8.27c-10.131,10.131-15.196,22.33-15.196,36.595 c0,14.265,5.048,26.448,15.146,36.542c10.094,10.099,22.277,15.146,36.542,15.146c14.265,0,26.446-5.048,36.542-15.146 c10.097-10.094,15.146-22.276,15.146-36.542s-5.031-26.464-15.093-36.595C284.218,231.772,280.632,229.017,276.844,226.81z M243.711,202.31c2.033-1.999,4.461-2.998,7.289-2.998c2.895,0,5.339,0.999,7.34,2.998c1.999,2.001,2.998,4.445,2.998,7.34 c0,2.828-0.999,5.256-2.998,7.289c-2.001,2.033-4.445,3.049-7.34,3.049c-2.828,0-5.256-1.016-7.289-3.049 c-2.033-2.033-3.049-4.461-3.049-7.289C240.662,206.755,241.678,204.311,243.711,202.31z M272.916,293.59 c-6.065,6.065-13.372,9.097-21.916,9.097c-8.616,0-15.938-3.032-21.968-9.097c-6.03-6.063-9.044-13.37-9.044-21.916 c0-8.614,3.014-15.936,9.044-21.968c6.03-6.028,13.351-9.044,21.968-9.044c8.544,0,15.851,3.017,21.916,9.044 c6.063,6.032,9.097,13.353,9.097,21.968C282.013,280.22,278.979,287.527,272.916,293.59z"/> <path d="M261,51c0-5.522-4.478-10-10-10C135.206,41,41,135.206,41,251c0,5.522,4.478,10,10,10s10-4.478,10-10 c0-104.767,85.233-190,190-190C256.522,61,261,56.522,261,51z"/> <path d="M342.354,61.862c-4.968-2.405-10.951-0.328-13.357,4.646c-2.406,4.971-0.326,10.952,4.646,13.357 c19.355,9.364,36.888,21.876,52.11,37.188c1.954,1.967,4.523,2.95,7.092,2.95c2.55,0,5.099-0.969,7.05-2.906 c3.917-3.894,3.936-10.226,0.042-14.142C383.12,86.038,363.747,72.213,342.354,61.862z"/> </g> </g> </g> </g>

</svg>