<?xml version="1.0" encoding="iso-8859-1"?>
<!-- Uploaded to: SVG Repo, www.svgrepo.com, Generator: SVG Repo Mixer Tools -->
<svg fill="#45f3ff" height="800px" width="800px" version="1.1" id="Layer_1" xmlns="http://www.w3.org/2000/svg" xmlns:xlink="http://www.w3.org/1999/xlink" 
	 viewBox="0 0 508.324 508.324" xml:space="preserve">
<g>
	<g>
		<path d="M504.662,179.987c-10.14-40.217-40.307-67.624-82.753-75.184c-55.236-9.859-114.909,6.244-162.284,22.648
			c-17.037-27.307-29.164-54.182-35.087-68.377c-3.735-8.935-8.674-16.806-14.677-23.401
			c-36.623-40.157-71.961-33.119-89.781-25.359c-16.374,7.138-30.088,20.209-38.601,36.814
			c-13.061,25.469-10.581,51.973-6.204,69.712c2.52,10.22,7.419,19.998,14.979,29.887c12.85,16.846,22.729,35.438,29.415,55.346
			c-33.762,25.71-62.243,54.543-82.653,83.677C4.93,331.59-6.857,378.212,3.855,417.023c8.172,29.606,28.572,52.465,59.01,66.108
			c33.149,14.868,66.168,20.872,97.892,20.872c98.284,0,184.129-57.675,222.81-88.345
			C494.492,327.694,518.857,236.247,504.662,179.987z M335.451,355.252c-81.107,61.882-161.752,84.942-215.723,61.671
			c-21.966-9.467-36.131-24.124-40.94-42.375c-6.234-23.592,3.032-52.656,26.785-84.058c7.098-9.377,15.35-18.713,24.466-27.909
			c1.225,48.058-12.961,84.611-13.151,85.102c-2.058,5.14,0.452,10.983,5.592,13.041c1.225,0.492,2.49,0.723,3.735,0.723
			c3.976,0,7.74-2.379,9.306-6.295c1.195-2.972,28.792-73.387,5.491-152.114v-0.06c-0.02-0.06-0.05-0.12-0.07-0.181
			c-0.06-0.211-0.09-0.412-0.161-0.622c-0.03-0.1-0.11-0.171-0.141-0.271c-7.359-24.345-18.904-47.014-34.424-67.353
			c-5.853-7.67-9.598-15.029-11.445-22.518c-3.564-14.416-5.662-35.79,4.568-55.748c6.405-12.479,16.625-22.277,28.762-27.568
			c6.787-2.962,13.533-4.437,20.239-4.437c15.912,0,31.543,8.333,46.682,24.927c4.447,4.879,8.142,10.802,10.983,17.599
			c6.305,15.089,19.386,43.922,37.768,73.035c0.05,0.09,0.05,0.191,0.1,0.281c0.582,0.904,1.165,1.747,1.737,2.64
			c0.492,0.763,0.934,1.516,1.436,2.279l0.402,0.532c35.669,54.332,74.2,82.563,112.6,82.563c5.582,0,11.164-0.592,16.725-1.787
			c5.421-1.165,8.875-6.505,7.71-11.927c-1.165-5.421-6.485-8.845-11.927-7.7c-31.282,6.706-59.964-12.88-83.205-38.952
			c35.81-10.019,68.919-11.927,96.477-5.441c29.435,6.957,46.532,20.631,50.798,40.669
			C444.989,242.21,405.273,301.974,335.451,355.252z"/>
	</g>
</g>
</svg>