<!DOCTYPE svg PUBLIC "-//W3C//DTD SVG 1.1//EN" "http://www.w3.org/Graphics/SVG/1.1/DTD/svg11.dtd">
<!-- Uploaded to: SVG Repo, www.svgrepo.com, Transformed by: SVG Repo Mixer Tools -->
<svg width="800px" height="800px" viewBox="0 0 24 24" fill="none" xmlns="http://www.w3.org/2000/svg">
<g id="SVGRepo_bgCarrier" stroke-width="0"/>
<g id="SVGRepo_tracerCarrier" stroke-linecap="round" stroke-linejoin="round"/>
<g id="SVGRepo_iconCarrier"> <path d="M14.064 6.33406C14.2473 5.83078 14.8082 5.56564 15.2814 5.81672C16.4362 6.42959 17.4026 7.35719 18.0626 8.50069C18.8851 9.9257 19.1793 11.5949 18.8937 13.2152C18.6081 14.8356 17.7608 16.3036 16.5006 17.3614C15.2404 18.4193 13.6478 18.9994 12.0025 19C10.3572 19.0006 8.76418 18.4216 7.50324 17.3646C6.24229 16.3077 5.39396 14.8403 5.10716 13.2202C4.82037 11.6 5.11344 9.9306 5.93493 8.50501C6.59414 7.36104 7.55981 6.43275 8.71425 5.81906C9.1872 5.56764 9.7483 5.83239 9.93199 6.33553C10.1157 6.83867 9.84982 7.38798 9.39088 7.66416C8.65967 8.10418 8.04686 8.72496 7.61554 9.47346C7.02168 10.504 6.80981 11.7108 7.01714 12.8821C7.22446 14.0533 7.83773 15.114 8.74927 15.8781C9.66082 16.6422 10.8124 17.0608 12.0018 17.0603C13.1912 17.0599 14.3425 16.6405 15.2535 15.8758C16.1645 15.1111 16.777 14.0499 16.9835 12.8785C17.19 11.7071 16.9773 10.5005 16.3827 9.47034C15.9508 8.72214 15.3376 8.1018 14.606 7.6623C14.1469 7.38645 13.8806 6.83733 14.064 6.33406Z" fill="#45f3ff"/> <path d="M12 5C11.4477 5 11 5.44772 11 6V12C11 12.5523 11.4477 13 12 13C12.5523 13 13 12.5523 13 12V6C13 5.44772 12.5523 5 12 5Z" fill="#45f3ff"/> <path fill-rule="evenodd" clip-rule="evenodd" d="M23 12C23 18.0751 18.0751 23 12 23C5.92487 23 1 18.0751 1 12C1 5.92487 5.92487 1 12 1C18.0751 1 23 5.92487 23 12ZM3.00683 12C3.00683 16.9668 7.03321 20.9932 12 20.9932C16.9668 20.9932 20.9932 16.9668 20.9932 12C20.9932 7.03321 16.9668 3.00683 12 3.00683C7.03321 3.00683 3.00683 7.03321 3.00683 12Z" fill="#45f3ff"/> </g>
</svg>