<!DOCTYPE svg PUBLIC "-//W3C//DTD SVG 1.1//EN" "http://www.w3.org/Graphics/SVG/1.1/DTD/svg11.dtd">

<!-- Uploaded to: SVG Repo, www.svgrepo.com, Transformed by: SVG Repo Mixer Tools -->
<svg fill="#000000" width="30px" height="30px" viewBox="0 0 24 24" id="mouse" data-name="Flat Line" xmlns="http://www.w3.org/2000/svg" class="icon flat-line">

<g id="SVGRepo_bgCarrier" stroke-width="0"/>

<g id="SVGRepo_tracerCarrier" stroke-linecap="round" stroke-linejoin="round"/>

<g id="SVGRepo_iconCarrier">

<path id="secondary" d="M12,3h0a6.62,6.62,0,0,1,6.61,7l-.28,5A6.33,6.33,0,0,1,12,21h0a6.33,6.33,0,0,1-6.33-6l-.28-5A6.62,6.62,0,0,1,12,3Z" style="fill: #28292d; stroke-width: 2;"/>

<path id="primary" d="M12,7V8M5.39,10l.28,5A6.33,6.33,0,0,0,12,21h0a6.33,6.33,0,0,0,6.33-6l.28-5A6.62,6.62,0,0,0,12,3h0A6.62,6.62,0,0,0,5.39,10Z" style="fill: none; stroke: #45f3ff; stroke-linecap: round; stroke-linejoin: round; stroke-width: 2;"/>

</g>

</svg>